<svg width="21" height="18" viewBox="0 0 21 18" fill="none" xmlns="http://www.w3.org/2000/svg">
<path d="M1.74946 7.59684L8.72042 0.712496C9.18259 0.256287 9.80935 2.03693e-06 10.4629 2.09202e-06C11.1164 2.1471e-06 11.7431 0.256287 12.2053 0.712496L19.1763 7.59563C19.7525 8.15965 20.2103 8.83051 20.5232 9.56968C20.8362 10.3089 20.9982 11.1018 21 11.9029C21.0018 12.7041 20.8433 13.4977 20.5336 14.2383C20.2239 14.9788 19.7691 15.6516 19.1954 16.2181C18.6216 16.7846 17.9402 17.2337 17.1903 17.5394C16.4403 17.8452 15.6365 18.0017 14.8251 18C14.0138 17.9982 13.4499 17.7885 12.6809 17.3819C11.601 16.8108 11.0341 15.7607 10.4629 15.1917C9.96733 15.7544 9.34489 16.5321 8.39942 17.0897C7.5849 17.5702 6.95118 17.8872 6.12276 17.9271C4.50222 17.9171 2.95093 17.2771 1.80493 16.1457C0.658932 15.0143 0.0105106 13.4826 0.000127652 11.8825C-0.0102553 10.2824 0.618238 8.74265 1.74946 7.59684Z" fill="#E1005A"/>
</svg>
