<svg width="220" height="183" viewBox="0 0 220 183" fill="none" xmlns="http://www.w3.org/2000/svg">
<g id="bow-arrow-heart-svgrepo-com 1">
<path id="Vector" d="M52.4978 109.005C50.376 109.006 48.6568 110.404 48.658 112.128C48.6592 113.851 50.3803 115.248 52.5022 115.247L52.4978 109.005ZM70.3073 106.123L67.6343 103.882L67.6111 103.9L67.5884 103.919L70.3073 106.123ZM97.2228 106.19L99.9395 103.983L99.9261 103.972L99.9125 103.962L97.2228 106.19ZM101.995 110.066L99.2783 112.273L100.42 113.201L102.035 113.187L101.995 110.066ZM52.5022 115.247C56.315 115.245 60.09 114.633 63.6115 113.446L60.6662 107.681C58.0769 108.554 55.3013 109.004 52.4978 109.005L52.5022 115.247ZM63.6115 113.446C67.1331 112.259 70.3322 110.52 73.0262 108.328L67.5884 103.919C65.6077 105.53 63.2555 106.809 60.6662 107.681L63.6115 113.446ZM72.9803 108.365C75.8723 106.09 79.7439 104.822 83.77 104.832L83.7933 98.5906C77.7637 98.5757 71.9653 100.474 67.6343 103.882L72.9803 108.365ZM83.77 104.832C87.7961 104.842 91.6581 106.129 94.533 108.418L99.9125 103.962C95.607 100.533 89.823 98.6055 83.7933 98.5906L83.77 104.832ZM94.506 108.397L99.2783 112.273L104.712 107.86L99.9395 103.983L94.506 108.397ZM102.035 113.187L112.452 113.098L112.372 106.857L101.955 106.946L102.035 113.187Z" fill="#7C5E53"/>
<path id="Vector_2" d="M167.249 115.247C169.371 115.248 171.092 113.852 171.094 112.128C171.095 110.405 169.376 109.007 167.254 109.006L167.249 115.247ZM149.444 106.124L152.163 103.919L152.14 103.9L152.117 103.882L149.444 106.124ZM122.529 106.19L119.839 103.962L119.825 103.972L119.812 103.983L122.529 106.19ZM167.254 109.006C164.45 109.004 161.675 108.554 159.085 107.682L156.14 113.446C159.662 114.633 163.437 115.245 167.249 115.247L167.254 109.006ZM159.085 107.682C156.496 106.809 154.144 105.53 152.163 103.919L146.725 108.329C149.419 110.52 152.618 112.259 156.14 113.446L159.085 107.682ZM152.117 103.882C147.786 100.475 141.988 98.5759 135.958 98.5907L135.982 104.832C140.008 104.822 143.879 106.09 146.771 108.365L152.117 103.882ZM135.958 98.5907C129.929 98.6056 124.144 100.533 119.839 103.962L125.218 108.418C128.093 106.129 131.955 104.842 135.982 104.832L135.958 98.5907ZM119.812 103.983L117.65 105.739L123.083 110.153L125.245 108.397L119.812 103.983ZM114.105 106.914L107.38 106.857L107.299 113.098L114.025 113.156L114.105 106.914ZM117.65 105.739C116.711 106.502 115.433 106.926 114.105 106.914L114.025 113.156C117.419 113.184 120.684 112.102 123.083 110.153L117.65 105.739Z" fill="#7C5E53"/>
<path id="Vector_3" d="M100.462 74.9377L98.0046 77.3954C97.3111 77.9953 96.7488 78.7317 96.3525 79.5586C95.9563 80.3855 95.7348 81.2851 95.7017 82.2015C95.6686 83.1178 95.8247 84.0311 96.1602 84.8844C96.4958 85.7377 97.0036 86.5127 97.6519 87.1611C98.3003 87.8094 99.0753 88.3172 99.9286 88.6528C100.782 88.9883 101.695 89.1444 102.612 89.1113C103.528 89.0783 104.428 88.8567 105.254 88.4605C106.081 88.0643 106.818 87.5019 107.418 86.8085L109.875 84.3507L112.333 86.8085C112.933 87.5019 113.669 88.0643 114.496 88.4605C115.323 88.8567 116.223 89.0783 117.139 89.1113C118.055 89.1444 118.969 88.9883 119.822 88.6528C120.675 88.3172 121.45 87.8094 122.099 87.1611C122.747 86.5127 123.255 85.7377 123.59 84.8844C123.926 84.0311 124.082 83.1178 124.049 82.2015C124.016 81.2851 123.794 80.3855 123.398 79.5586C123.002 78.7317 122.44 77.9953 121.746 77.3954L110.582 66.2317C110.192 65.8412 109.559 65.8412 109.168 66.2317L100.462 74.9377Z" stroke="#7C5E53" stroke-width="7" stroke-miterlimit="10"/>
<path id="Vector_4" d="M99.4313 154.5L109.876 146.016V82.4891" stroke="#7C5E53" stroke-width="7" stroke-miterlimit="10" stroke-linecap="round"/>
<path id="Vector_5" d="M109.876 146.016L120.32 154.5" stroke="#7C5E53" stroke-width="7" stroke-miterlimit="10" stroke-linecap="round"/>
<path id="Vector_6" d="M96.814 143.912L109.876 133.302" stroke="#7C5E53" stroke-width="7" stroke-miterlimit="10" stroke-linecap="round"/>
<path id="Vector_7" d="M109.875 133.302L122.938 143.912" stroke="#7C5E53" stroke-width="7" stroke-miterlimit="10" stroke-linecap="round"/>
<path id="Vector_8" d="M86.2699 139.762C87.7703 140.98 90.203 140.98 91.7034 139.762C93.2038 138.543 93.2038 136.567 91.7034 135.348L86.2699 139.762ZM54.9913 114.355L86.2699 139.762L91.7034 135.348L60.4247 109.942L54.9913 114.355Z" fill="#7C5E53"/>
<path id="Vector_9" d="M161.934 112.237L130.764 137.555" stroke="#7C5E53" stroke-width="7" stroke-miterlimit="10" stroke-linecap="round"/>
</g>
</svg>
