<svg width="245" height="174" viewBox="0 0 245 174" fill="none" xmlns="http://www.w3.org/2000/svg">
<path d="M0.967779 118.165C0.967779 125.495 2.52136 132.753 5.53983 139.525C8.5583 146.296 12.9825 152.449 18.5599 157.632C29.824 168.099 45.1013 173.98 61.0311 173.98H221.2C233.025 173.999 244.419 169.851 253.082 162.371C261.745 154.892 267.034 144.638 267.88 133.677C268.727 122.716 265.069 111.865 257.644 103.312C250.22 94.7596 239.581 89.1416 227.874 87.5915C228.004 66.4908 219.861 46.0682 204.965 30.1412C190.07 14.2143 169.443 3.87318 146.939 1.05105C124.436 -1.77109 101.597 3.11889 82.6909 14.8069C63.7852 26.4949 50.107 44.1809 44.2134 64.5589C31.7329 67.9415 20.7704 74.9957 12.9724 84.6619C5.17446 94.3281 0.962002 106.085 0.967779 118.165Z" fill="white"/>
</svg>
