<svg width="176" height="110" viewBox="0 0 176 110" fill="none" xmlns="http://www.w3.org/2000/svg">
<path id="Vector" d="M0.385746 73.2C0.385746 77.9996 1.40304 82.7522 3.37955 87.1864C5.35605 91.6207 8.25306 95.6498 11.9052 99.0436C19.2809 105.898 29.2846 109.748 39.7155 109.748H144.595C152.338 109.761 159.799 107.045 165.471 102.147C171.144 97.2493 174.607 90.5345 175.161 83.3573C175.716 76.1801 173.32 69.0746 168.459 63.474C163.597 57.8734 156.631 54.1946 148.965 53.1796C149.05 39.3623 143.718 25.9891 133.964 15.5598C124.211 5.13048 110.704 -1.64109 95.9686 -3.48909C81.2332 -5.33709 66.278 -2.13501 53.8984 5.51856C41.5188 13.1721 32.5623 24.7533 28.7032 38.0972C20.5309 40.3123 13.3526 44.9315 8.24645 51.2612C3.1403 57.5908 0.381963 65.2892 0.385746 73.2Z" fill="white"/>
</svg>
