<svg width="226" height="163" viewBox="0 0 226 163" fill="none" xmlns="http://www.w3.org/2000/svg">
<path id="Vector" d="M-24 110.92C-24 117.76 -22.5482 124.532 -19.7276 130.85C-16.907 137.169 -12.7727 142.91 -7.56086 147.746C2.96494 157.513 17.241 163 32.1267 163H181.798C192.848 163.018 203.495 159.148 211.59 152.169C219.686 145.189 224.627 135.621 225.419 125.394C226.21 115.167 222.792 105.042 215.854 97.0613C208.916 89.0808 198.974 83.8386 188.034 82.3923C188.156 62.7035 180.546 43.6474 166.627 28.7861C152.708 13.9249 133.433 4.27576 112.404 1.64245C91.3759 -0.990848 70.0335 3.57194 52.3669 14.4779C34.7002 25.3838 21.9186 41.8864 16.4112 60.9008C4.74876 64.0571 -5.49525 70.6393 -12.7821 79.6587C-20.069 88.6782 -24.0054 99.6479 -24 110.92Z" fill="white"/>
</svg>
