<svg width="19" height="18" viewBox="0 0 19 18" fill="none" xmlns="http://www.w3.org/2000/svg">
<g id="Group">
<path id="Vector" d="M12 11L11.014 11.164C10.9902 11.0208 10.9978 10.8741 11.0364 10.7342C11.075 10.5943 11.1436 10.4644 11.2374 10.3536C11.3312 10.2429 11.4481 10.1539 11.5797 10.0928C11.7114 10.0317 11.8548 10.0001 12 10V11ZM1 11V12C0.734784 12 0.48043 11.8946 0.292893 11.7071C0.105357 11.5196 0 11.2652 0 11H1ZM3 5.91528e-09H14.36V2H3V5.91528e-09ZM15.56 12H12V10H15.56V12ZM12.987 10.836L13.792 15.671L11.82 16L11.014 11.164L12.987 10.836ZM11.82 18H11.606V16H11.82V18ZM8.277 16.219L5.762 12.445L7.426 11.335L9.942 15.109L8.277 16.219ZM4.93 12H1V10H4.93V12ZM0 11V3H2V11H0ZM17.302 2.412L18.502 8.412L16.542 8.804L15.342 2.804L17.302 2.412ZM5.762 12.445C5.67065 12.3081 5.54692 12.1958 5.40178 12.1182C5.25665 12.0406 5.09459 12 4.93 12V10C5.42387 10 5.91009 10.122 6.3455 10.3551C6.78092 10.5881 7.15207 10.9251 7.426 11.336L5.762 12.445ZM13.792 15.671C13.8398 15.9575 13.8246 16.2509 13.7475 16.5309C13.6704 16.8109 13.5333 17.0707 13.3456 17.2924C13.1579 17.514 12.9242 17.6921 12.6608 17.8143C12.3973 17.9365 12.1104 17.9999 11.82 18V16L13.792 15.671ZM15.56 10C15.708 10.0001 15.8541 9.96728 15.9879 9.90402C16.1217 9.84076 16.2397 9.7486 16.3336 9.63419C16.4274 9.51978 16.4947 9.38596 16.5306 9.2424C16.5664 9.09884 16.571 8.94911 16.542 8.804L18.502 8.412C18.589 8.84715 18.5783 9.29618 18.4708 9.72672C18.3633 10.1573 18.1617 10.5586 17.8804 10.9018C17.599 11.245 17.2451 11.5215 16.844 11.7114C16.443 11.9013 16.0048 11.9999 15.561 12L15.56 10ZM14.36 5.91528e-09C15.0536 -4.35331e-05 15.7258 0.240264 16.2622 0.680027C16.7986 1.11979 17.166 1.73183 17.302 2.412L15.342 2.804C15.2966 2.57705 15.174 2.37287 14.9949 2.22625C14.8158 2.07964 14.5914 1.99968 14.36 2V5.91528e-09ZM11.606 18C10.9475 18 10.2993 17.8374 9.71871 17.5267C9.13816 17.2161 8.64228 16.7668 8.277 16.219L9.942 15.109C10.1246 15.383 10.372 15.6077 10.6623 15.7631C10.9526 15.9186 11.2767 15.9999 11.606 16V18ZM3 2C2.73478 2 2.48043 2.10536 2.29289 2.29289C2.10536 2.48043 2 2.73478 2 3H0C0 2.20435 0.316071 1.44129 0.87868 0.87868C1.44129 0.316071 2.20435 5.91528e-09 3 5.91528e-09V2Z" fill="#7F655C"/>
<path id="Vector_2" d="M5 11V1" stroke="#7F655C" stroke-width="2"/>
</g>
</svg>
