<svg width="215" height="255" viewBox="0 0 215 255" fill="none" xmlns="http://www.w3.org/2000/svg">
<path d="M268.768 133.094L189.662 241.268C184.417 248.437 176.547 253.218 167.784 254.561C159.02 255.903 150.08 253.696 142.93 248.426L35.0749 168.906C26.1695 162.4 18.6302 154.194 12.8898 144.76C7.14933 135.325 3.3208 124.848 1.624 113.929C-0.0728017 103.01 0.395538 91.8651 3.00212 81.1334C5.60871 70.4017 10.3022 60.2948 16.8132 51.393C23.3241 42.4912 31.5243 34.9697 40.943 29.2605C50.3616 23.5513 60.8132 19.7667 71.6977 18.124C82.5822 16.4813 90.5816 18.1818 101.743 22.1464C117.417 27.7137 127.212 40.8652 136.061 47.449C141.531 38.7604 148.254 26.8793 159.768 17.3349C169.688 9.11229 177.524 3.48834 188.55 1.24241C210.303 -1.94951 232.442 3.58983 250.173 16.6605C267.903 29.7311 279.797 49.2806 283.277 71.0739C286.758 92.8673 281.545 115.15 268.768 133.094Z" fill="#FF9CB8"/>
</svg>
