<svg width="268" height="301" viewBox="0 0 268 301" fill="none" xmlns="http://www.w3.org/2000/svg">
<path d="M215.29 227.24L77.076 296.442C67.9135 301.027 57.3104 301.783 47.5983 298.543C37.8861 295.303 29.8602 288.333 25.2855 279.165L-43.7047 140.86C-49.4326 129.502 -52.8623 117.121 -53.7969 104.428C-54.7314 91.7357 -53.1524 78.9811 -49.1505 66.8969C-45.1485 54.8126 -38.8025 43.6367 -30.4767 34.0107C-22.1509 24.3847 -12.0093 16.4982 -0.63418 10.804C10.741 5.10985 23.1256 1.72011 35.8088 0.829408C48.492 -0.0612931 61.2239 1.56459 73.2736 5.61372C85.3232 9.66285 92.6488 15.6189 102.032 25.5606C115.21 39.5217 118.355 58.1598 123.984 69.5677C134.177 63.5438 147.338 54.908 164.193 51.1904C178.713 47.9876 189.726 46.3509 202.238 49.8562C226.271 58.0416 246.108 75.3794 257.45 98.1138C268.793 120.848 270.728 147.149 262.837 171.318C254.945 195.486 237.863 215.578 215.29 227.24Z" fill="white"/>
</svg>
