<svg width="46" height="40" viewBox="0 0 46 40" fill="none" xmlns="http://www.w3.org/2000/svg">
<path id="Vector" d="M41.8559 23.0453L26.7706 38.1333C25.7704 39.1332 24.4141 39.6948 22.9999 39.6948C21.5857 39.6948 20.2294 39.1332 19.2292 38.1333L4.14389 23.048C2.89688 21.8118 1.9063 20.3416 1.22903 18.7216C0.551764 17.1016 0.201143 15.3638 0.197298 13.6079C0.193453 11.852 0.53646 10.1127 1.20663 8.48974C1.87679 6.86679 2.86092 5.39219 4.10251 4.1506C5.3441 2.90902 6.8187 1.92489 8.44165 1.25472C10.0646 0.584555 11.8039 0.241548 13.5598 0.245393C15.3157 0.249238 16.5359 0.7088 18.2 1.60005C20.5369 2.85161 21.7638 5.15303 22.9999 6.40005C24.0722 5.1669 25.4192 3.46246 27.4652 2.2403C29.2279 1.18741 30.5992 0.492571 32.392 0.405065C35.8989 0.427038 39.2559 1.82976 41.7359 4.30938C44.2158 6.789 45.619 10.1458 45.6415 13.6527C45.664 17.1596 44.3039 20.5341 41.8559 23.0453Z" fill="#A894FF"/>
</svg>
