<svg width="46" height="40" viewBox="0 0 46 40" fill="none" xmlns="http://www.w3.org/2000/svg">
<path id="Vector" d="M41.6586 22.8L26.5733 37.888C25.5731 38.8878 24.2168 39.4495 22.8026 39.4495C21.3884 39.4495 20.0321 38.8878 19.032 37.888L3.94662 22.8026C2.69961 21.5665 1.70903 20.0962 1.03177 18.4762C0.354498 16.8562 0.0038769 15.1184 3.19696e-05 13.3625C-0.00381296 11.6067 0.339195 9.86733 1.00936 8.24438C1.67953 6.62143 2.66366 5.14683 3.90524 3.90524C5.14683 2.66365 6.62143 1.67953 8.24438 1.00936C9.86733 0.339194 11.6067 -0.00381296 13.3625 3.19698e-05C15.1184 0.0038769 16.3386 0.463438 18.0027 1.35469C20.3396 2.60625 21.5665 4.90767 22.8026 6.15469C23.875 4.92154 25.2219 3.2171 27.2679 1.99494C29.0306 0.942051 30.402 0.247209 32.1947 0.159704C35.7016 0.181677 39.0586 1.5844 41.5386 4.06402C44.0185 6.54363 45.4218 9.90047 45.4442 13.4073C45.4667 16.9142 44.1066 20.2888 41.6586 22.8Z" fill="#FF9CB8"/>
</svg>
