<svg width="25" height="24" viewBox="0 0 25 24" fill="none" xmlns="http://www.w3.org/2000/svg">
<g id="iconamoon:mode-dark">
<path id="Vector" d="M21.496 11.712L22.495 11.68C22.4902 11.5271 22.4503 11.3774 22.3785 11.2423C22.3067 11.1072 22.2049 10.9904 22.0809 10.9009C21.9568 10.8114 21.8139 10.7515 21.6631 10.7258C21.5123 10.7002 21.3576 10.7095 21.211 10.753L21.496 11.712ZM12.789 3.005L13.747 3.289C13.7905 3.14236 13.7998 2.98768 13.7742 2.83688C13.7485 2.68608 13.6886 2.54317 13.5991 2.41915C13.5096 2.29513 13.3928 2.1933 13.2577 2.1215C13.1226 2.0497 12.9729 2.00985 12.82 2.005L12.789 3.005ZM21.211 10.753C20.6556 10.9175 20.0793 11.0007 19.5 11V13C20.2719 13.0006 21.0399 12.8894 21.78 12.67L21.211 10.753ZM19.5 11C17.9087 11 16.3826 10.3679 15.2574 9.24264C14.1321 8.11742 13.5 6.5913 13.5 5H11.5C11.5 7.12173 12.3429 9.15656 13.8431 10.6569C15.3434 12.1571 17.3783 13 19.5 13V11ZM13.5 5C13.5 4.404 13.587 3.829 13.747 3.289L11.83 2.72C11.6106 3.4601 11.4994 4.22806 11.5 5H13.5ZM12.5 4C12.5867 4 12.6723 4.00133 12.757 4.004L12.82 2.005C12.7134 2.00163 12.6067 1.99996 12.5 2V4ZM4.5 12C4.5 9.87827 5.34285 7.84344 6.84315 6.34315C8.34344 4.84286 10.3783 4 12.5 4V2C6.977 2 2.5 6.477 2.5 12H4.5ZM12.5 20C10.3783 20 8.34344 19.1571 6.84315 17.6569C5.34285 16.1566 4.5 14.1217 4.5 12H2.5C2.5 17.523 6.977 22 12.5 22V20ZM20.5 12C20.5 14.1217 19.6571 16.1566 18.1569 17.6569C16.6566 19.1571 14.6217 20 12.5 20V22C18.023 22 22.5 17.523 22.5 12H20.5ZM20.496 11.743C20.4987 11.8277 20.5 11.9133 20.5 12H22.5C22.5 11.8933 22.4983 11.7867 22.495 11.68L20.496 11.743Z" fill="#7F655C"/>
</g>
</svg>
